<svg xmlns="http://www.w3.org/2000/svg" xmlns:xlink="http://www.w3.org/1999/xlink" xml:space="preserve" width="1147.2928" height="207.33029" viewBox="0 0 1147.2928 207.33029"><defs><linearGradient id="b"><stop offset="0" style="stop-color:#196eff;stop-opacity:1"/><stop offset="1" style="stop-color:#0d379d;stop-opacity:1"/></linearGradient><linearGradient id="a"><stop offset="0" style="stop-color:#7dd7ff;stop-opacity:1"/><stop offset="1" style="stop-color:#196eff;stop-opacity:1"/></linearGradient><linearGradient xlink:href="#a" id="d" x1="1352.5405" x2="1424.6014" y1="371.25372" y2="224.73093" gradientTransform="translate(0 233.41)" gradientUnits="userSpaceOnUse"/><linearGradient xlink:href="#b" id="c" x1="1445.5482" x2="1514.4865" y1="236.0988" y2="378.92471" gradientTransform="translate(0 233.41)" gradientUnits="userSpaceOnUse"/></defs><path d="M466.54 466.54c-48.789 0-79.905 39.62-79.905 88.495s29.091 88.498 79.904 88.498c44.531 0 75.361-34.868 75.554-71.314h-35.499c-2.755 21.283-16.722 38.154-41.32 38.154-23.327 0-42.63-25.166-42.63-53.463 0-28.296 13.266-57.421 43.237-58.931a47 47 0 0 1 2.943-.057c25.114.327 34.226 21.98 36.446 45.238l35.387-21.118c-9.915-32.922-34.212-55.503-74.118-55.503" style="opacity:1;fill:#000;fill-opacity:1;stroke-width:14.0998;stroke-linecap:round;stroke-linejoin:round" transform="translate(-386.635 -436.596)"/><path d="m553.604 471.695.358 166.777 34.196-.054s.1-27.177.1-48.32c0-22.38 4.064-51.441 26.484-51.441 23.741 0 24.566 26.234 24.566 34.965v64.85h35.8s-.259-47.653-.259-78.276c0-9.018-3.508-22.347-8.142-29.745-9.107-14.535-24.57-19.234-35.633-19.234-30.325 0-37.832 22.616-40.079 28.84-.214.593-2.845.363-2.845-.882 0-12.362.018-67.48.018-67.48zM736.223 511.52c-31.49 0-51.474 30.97-49.98 70.144.94 24.674 14.202 61.654 49.696 61.654 32.88 0 37.045-28.978 39.64-28.978 1.489 0 1.413 1.688 1.413 6.912v17.22h34.299V516.409h-34.299v19.389c0 3.245-.276 4.389-1.763 4.389-1.845 0-7.765-28.666-39.006-28.666m12.035 27.039c18.373 0 26.48 16.948 26.48 38.353s-6.67 39.264-26.658 39.264c-18.267 0-26.963-17.859-26.963-39.264 0-23.329 10.04-38.353 27.14-38.353" style="opacity:1;fill:#000;fill-opacity:1;stroke-width:13.8;stroke-linecap:round;stroke-linejoin:round" transform="translate(-386.635 -436.596)"/><path d="m828.074 516.407.178 122.065h35.211V590.3c0-22.38 3.142-51.644 25.558-51.644 23.736 0 24.561 26.234 24.561 34.965v64.85h35.793s-.258-47.653-.258-78.276c0-9.018-3.507-22.347-8.141-29.745-9.105-14.535-24.566-19.234-35.626-19.234-30.32 0-37.825 22.616-40.072 28.84-.214.593-1.815.506-1.815-.739v-22.91zM966.158 516.407l.178 122.065h35.211V590.3c0-22.38 3.141-51.644 25.558-51.644 23.736 0 24.56 26.234 24.56 34.965v64.85h35.794s-.258-47.653-.258-78.276c0-9.018-3.508-22.347-8.141-29.745-9.105-14.535-24.566-19.234-35.626-19.234-30.32 0-37.825 22.616-40.072 28.84-.214.593-1.815.506-1.815-.739v-22.91z" style="opacity:1;fill:#000;fill-opacity:1;stroke-width:13.7987;stroke-linecap:round;stroke-linejoin:round" transform="translate(-386.635 -436.596)"/><path d="M1161.559 511.392c-4.806-.012-9.185.55-14.692 1.686-32.133 6.626-58.41 42.487-47.629 81.094 9.302 33.305 33.657 49.111 63.375 49.111 38.933 0 58.867-29.062 58.867-29.062l-17.34-25.72s-13.647 20.108-38.837 21.599c-19.956 1.18-27.765-12.95-29.969-17.252-.25-.488 85.75-24.983 85.75-24.983-.207-21.483-13.064-56.358-59.525-56.473m4.341 30.981c8.665-.017 16.646 2.547 16.774 8.652.246 11.741-50.836 29.5-50.836 29.5s-5.64-23.244 17.613-34.796c4.272-2.123 10.521-3.344 16.45-3.356M1233.302 471.695v138.598c0 13.717 7.176 33.158 29.63 33.158.782 0 1.538-.005 2.263-.005 7.455 0 14.205-3.259 18.466-4.974 8.388-3.376 15.544-11.208 15.544-11.208l-17.918-25.627s-3.778 4.02-7.356 5.686c-2.325 1.082-5.847-.22-5.847-3.141V471.695Z" style="opacity:1;fill:#000;fill-opacity:1;stroke-width:13.8;stroke-linecap:round;stroke-linejoin:round" transform="translate(-386.635 -436.596)"/><path d="M1438.527 471.518c13.252 43.725 32.137 116.077 44.526 155.817 3.291 10.556 17.418 21.563 36.645 13.933 11.703-4.644 17.234-23.059 12.588-32.817-26.002-54.617-50.667-106.011-73.946-155.09-3.898-8.218-8.35-16.765-21.53-16.765-.564 0-1.164.018-1.742.018-20.299 0-.855 30.451-.855 30.451 2.064.067 3.483 1.71 4.314 4.453" style="opacity:1;fill:url(#c);fill-opacity:1;stroke-width:13.8;stroke-linecap:round;stroke-linejoin:round" transform="translate(-386.635 -436.596)"/><path d="M1408.07 457.68c-16.973 36.577-48.963 100.815-68.307 143.172-5.543 12.136-.193 35.395 16.07 40.924 16.15 5.492 28.32.18 42.962-12.67 41.025-36 98.207-83.65 127.682-110.53 1.156-1.054 1.685-3.29.748-4.912-.773-1.34-3.867-1.594-5.223-.851-18.429 10.093-112.097 66.765-127.803 76.155-1.79 1.07-4.054 2.428-5.413 1.178-2.681-2.468-.12-6.474 1.432-10.836 4.53-12.738 24.766-67.032 38.51-104.481.805-2.192 2.622-7.764 5.485-7.764 2.69 0 3.94-30.426.126-30.426-12.858 0-22.374 12.647-26.269 21.04" style="opacity:1;fill:url(#d);fill-opacity:1;stroke-width:13.8;stroke-linecap:round;stroke-linejoin:round" transform="translate(-386.635 -436.596)"/></svg>