<svg xmlns="http://www.w3.org/2000/svg" xmlns:xlink="http://www.w3.org/1999/xlink" xml:space="preserve" width="283.465" height="144.963" x="0px" y="0px" enable-background="new 0 0 841.89 595.28" viewBox="0 0 283.46499 144.96299"><g transform="translate(-278.906 -224.314)"><defs><path id="a" d="M278.906 224.314h283.465v144.963H278.906z"/></defs><clipPath id="b"><use xlink:href="#a" width="100%" height="100%" overflow="visible" style="overflow:visible"/></clipPath><g clip-path="url(#b)"><defs><filter id="c" width="377.60901" height="181.18401" x="233.3" y="220.672" filterUnits="userSpaceOnUse"><feColorMatrix values="1 0 0 0 0 0 1 0 0 0 0 0 1 0 0 0 0 0 1 0"/></filter></defs><mask id="e" width="377.609" height="181.184" x="233.3" y="220.672" maskUnits="userSpaceOnUse"><g style="filter:url(#c)"><linearGradient id="d" x1="278.90579" x2="338.0405" y1="311.19629" y2="311.19629" gradientUnits="userSpaceOnUse"><stop offset="0.65" style="stop-color:#fff"/><stop offset="1" style="stop-color:#000"/></linearGradient><path d="M304.245 310.142c.003 13.978-11.365 25.347-25.339 25.347v33.789c32.605 0 59.135-26.529 59.135-59.136l-.004-57.025-33.792-.001z" style="fill:url(#d)"/></g></mask><g mask="url(#e)"><defs><filter id="f" width="377.60901" height="181.18401" x="233.3" y="220.672" filterUnits="userSpaceOnUse"><feFlood result="back"/><feBlend in="SourceGraphic" in2="back"/></filter></defs><path d="M470.957 398.746c-100.695 12.949-204.198-15.724-231.177-64.042-26.984-48.314 32.774-97.976 133.473-110.923 100.695-12.947 204.193 15.727 231.179 64.044 26.978 48.314-32.78 97.979-133.475 110.921z" style="fill:#fff"/><defs><filter id="g" width="377.60901" height="181.18401" x="233.3" y="220.672" filterUnits="userSpaceOnUse"><feFlood result="back"/><feBlend in="SourceGraphic" in2="back"/></filter></defs><mask id="i" width="377.609" height="181.184" x="233.3" y="220.672" maskUnits="userSpaceOnUse"/><linearGradient id="h" x1="4005.2373" x2="4205.6885" y1="5097.8066" y2="5097.8066" gradientTransform="rotate(75.001 5382.718 304.454)" gradientUnits="userSpaceOnUse"><stop offset="0" style="stop-color:#ff0"/><stop offset="0.75" style="stop-color:#ff0;stop-opacity:0"/></linearGradient><path d="M470.957 398.746c-100.695 12.949-204.198-15.724-231.177-64.042-26.984-48.314 32.774-97.976 133.473-110.923 100.695-12.947 204.193 15.727 231.179 64.044 26.978 48.314-32.78 97.979-133.475 110.921z" mask="url(#i)" style="fill:url(#h)"/><linearGradient id="j" x1="8493.2383" x2="8789.4531" y1="1696.377" y2="1696.377" gradientTransform="rotate(-45.001 2859.61 10925.308)" gradientUnits="userSpaceOnUse"><stop offset="0" style="stop-color:#f0047f"/><stop offset="0.75" style="stop-color:#f0047f;stop-opacity:0"/></linearGradient><path d="M555.594 247.213c73.725 35.375 73.725 92.727 0 128.106-73.723 35.375-193.262 35.375-266.987 0-73.734-35.38-73.73-92.729-.002-128.107 73.727-35.377 193.262-35.377 266.989.001z" style="fill:url(#j)"/></g><defs><filter id="k" width="377.67599" height="181.218" x="233.26401" y="220.65601" filterUnits="userSpaceOnUse"><feColorMatrix values="1 0 0 0 0 0 1 0 0 0 0 0 1 0 0 0 0 0 1 0"/></filter></defs><mask id="m" width="377.676" height="181.218" x="233.264" y="220.656" maskUnits="userSpaceOnUse"><g style="filter:url(#k)"><linearGradient id="l" x1="490.09381" x2="562.37109" y1="310.1387" y2="310.1387" gradientUnits="userSpaceOnUse"><stop offset="0.65" style="stop-color:#fff"/><stop offset="1" style="stop-color:#000"/></linearGradient><path d="M562.371 331.814c-4.182 2.389-8.068 3.676-13.141 3.676-14.002 0-25.352-11.354-25.352-25.349 0-14.002 11.35-25.352 25.352-25.352 5.074 0 8.959 1.285 13.141 3.676V252.47a59.443 59.443 0 0 0-13.141-1.468c-32.658 0-59.137 26.478-59.137 59.14 0 32.658 26.479 59.135 59.137 59.135 4.516 0 8.916-.509 13.141-1.467z" style="fill:url(#l)"/></g></mask><g mask="url(#m)"><path d="M239.744 287.819c26.984-48.324 130.503-77.001 231.223-64.055 100.715 12.947 160.479 62.622 133.492 110.944-26.984 48.324-130.506 77.006-231.22 64.055-100.714-12.949-160.482-62.618-133.495-110.944Z" style="fill:#fff"/><linearGradient id="n" x1="1977.2012" x2="2344.9727" y1="-3141.4595" y2="-3141.4595" gradientTransform="scale(-1) rotate(14.999 -9879.702 -11537.491)" gradientUnits="userSpaceOnUse"><stop offset="0" style="stop-color:#00a0c6"/><stop offset="0.75" style="stop-color:#00a0c6;stop-opacity:0"/></linearGradient><path d="M239.744 287.819c26.984-48.324 130.503-77.001 231.223-64.055 100.715 12.947 160.479 62.622 133.492 110.944-26.984 48.324-130.506 77.006-231.22 64.055-100.714-12.949-160.482-62.618-133.495-110.944Z" style="fill:url(#n)"/><defs><filter id="o" width="377.60901" height="181.18401" x="233.3" y="220.672" filterUnits="userSpaceOnUse"><feFlood result="back"/><feBlend in="SourceGraphic" in2="back"/></filter></defs><linearGradient id="p" x1="4005.2373" x2="4205.6885" y1="5097.8066" y2="5097.8066" gradientTransform="rotate(75.001 5382.718 304.454)" gradientUnits="userSpaceOnUse"><stop offset="0" style="stop-color:#ff0"/><stop offset="0.75" style="stop-color:#ff0;stop-opacity:0"/></linearGradient><path d="M470.957 398.746c-100.695 12.949-204.198-15.724-231.177-64.042-26.984-48.314 32.774-97.976 133.473-110.923 100.695-12.947 204.193 15.727 231.179 64.044 26.978 48.314-32.78 97.979-133.475 110.921z" style="fill:url(#p)"/><linearGradient id="q" x1="8493.2383" x2="8789.4531" y1="1696.377" y2="1696.377" gradientTransform="rotate(-45.001 2859.61 10925.308)" gradientUnits="userSpaceOnUse"><stop offset="0" style="stop-color:#f0047f"/><stop offset="0.75" style="stop-color:#f0047f;stop-opacity:0"/></linearGradient><path d="M555.594 247.213c73.725 35.375 73.725 92.727 0 128.106-73.723 35.375-193.262 35.375-266.987 0-73.734-35.38-73.73-92.729-.002-128.107 73.727-35.377 193.262-35.377 266.989.001z" style="fill:url(#q)"/></g><defs><filter id="r" width="377.67599" height="181.218" x="233.26401" y="220.65601" filterUnits="userSpaceOnUse"><feColorMatrix values="1 0 0 0 0 0 1 0 0 0 0 0 1 0 0 0 0 0 1 0"/></filter></defs><mask id="t" width="377.676" height="181.218" x="233.264" y="220.656" maskUnits="userSpaceOnUse"><g style="filter:url(#r)"><linearGradient id="s" x1="397.17331" x2="502.74219" y1="296.7959" y2="296.7959" gradientUnits="userSpaceOnUse"><stop offset="0.65" style="stop-color:#fff"/><stop offset="1" style="stop-color:#000"/></linearGradient><path d="M490.094 310.142c0-13.789 4.732-26.468 12.643-36.525v-.024c-10.83-13.74-27.613-22.586-46.432-22.586a58.68 58.68 0 0 0-25.338 5.72l-.004-32.411-33.79.005.004 85.822c.003 32.606 26.526 59.136 59.127 59.136 18.818 0 35.602-8.848 46.438-22.588v-.024c-7.914-10.062-12.648-22.737-12.648-36.525zm-33.789 25.346c-13.973 0-25.338-11.371-25.342-25.347.004-13.975 11.369-25.344 25.342-25.344 13.971 0 25.34 11.369 25.34 25.344.003 13.978-11.37 25.347-25.34 25.347z" style="fill:url(#s)"/></g></mask><g mask="url(#t)"><path d="M239.744 287.819c26.984-48.324 130.503-77.001 231.223-64.055 100.715 12.947 160.479 62.622 133.492 110.944-26.984 48.324-130.506 77.006-231.22 64.055-100.714-12.949-160.482-62.618-133.495-110.944Z" style="fill:#fff"/><linearGradient id="u" x1="1977.2012" x2="2344.9727" y1="-3141.4595" y2="-3141.4595" gradientTransform="scale(-1) rotate(14.999 -9879.702 -11537.491)" gradientUnits="userSpaceOnUse"><stop offset="0" style="stop-color:#00a0c6"/><stop offset="0.75" style="stop-color:#00a0c6;stop-opacity:0"/></linearGradient><path d="M239.744 287.819c26.984-48.324 130.503-77.001 231.223-64.055 100.715 12.947 160.479 62.622 133.492 110.944-26.984 48.324-130.506 77.006-231.22 64.055-100.714-12.949-160.482-62.618-133.495-110.944Z" style="fill:url(#u)"/><defs><filter id="v" width="377.60901" height="181.18401" x="233.3" y="220.672" filterUnits="userSpaceOnUse"><feFlood result="back"/><feBlend in="SourceGraphic" in2="back"/></filter></defs><linearGradient id="w" x1="4005.2373" x2="4205.6885" y1="5097.8066" y2="5097.8066" gradientTransform="rotate(75.001 5382.718 304.454)" gradientUnits="userSpaceOnUse"><stop offset="0" style="stop-color:#ff0"/><stop offset="0.75" style="stop-color:#ff0;stop-opacity:0"/></linearGradient><path d="M470.957 398.746c-100.695 12.949-204.198-15.724-231.177-64.042-26.984-48.314 32.774-97.976 133.473-110.923 100.695-12.947 204.193 15.727 231.179 64.044 26.978 48.314-32.78 97.979-133.475 110.921z" style="fill:url(#w)"/><linearGradient id="x" x1="8493.2383" x2="8789.4531" y1="1696.377" y2="1696.377" gradientTransform="rotate(-45.001 2859.61 10925.308)" gradientUnits="userSpaceOnUse"><stop offset="0" style="stop-color:#f0047f"/><stop offset="0.75" style="stop-color:#f0047f;stop-opacity:0"/></linearGradient><path d="M555.594 247.213c73.725 35.375 73.725 92.727 0 128.106-73.723 35.375-193.262 35.375-266.987 0-73.734-35.38-73.73-92.729-.002-128.107 73.727-35.377 193.262-35.377 266.989.001z" style="fill:url(#x)"/></g><defs><filter id="y" width="377.67599" height="181.218" x="233.26401" y="220.65601" filterUnits="userSpaceOnUse"><feColorMatrix values="1 0 0 0 0 0 1 0 0 0 0 0 1 0 0 0 0 0 1 0"/></filter></defs><mask id="A" width="377.676" height="181.218" x="233.264" y="220.656" maskUnits="userSpaceOnUse"><g style="filter:url(#y)"><linearGradient id="z" x1="338.0405" x2="397.17719" y1="296.7988" y2="296.7988" gradientUnits="userSpaceOnUse"><stop offset="0.65" style="stop-color:#fff"/><stop offset="1" style="stop-color:#000"/></linearGradient><path d="M338.041 310.142c0 32.606 26.529 59.136 59.137 59.136l-.004-33.791c-13.971.002-25.341-11.367-25.341-25.345v-23.234l25.345.002v-33.794h-25.345V224.32l-33.788 28.795z" style="fill:url(#z)"/></g></mask><g mask="url(#A)"><path d="M239.744 287.819c26.984-48.324 130.503-77.001 231.223-64.055 100.715 12.947 160.479 62.622 133.492 110.944-26.984 48.324-130.506 77.006-231.22 64.055-100.714-12.949-160.482-62.618-133.495-110.944Z" style="fill:#fff"/><linearGradient id="B" x1="1977.2012" x2="2344.9727" y1="-3141.4595" y2="-3141.4595" gradientTransform="scale(-1) rotate(14.999 -9879.702 -11537.491)" gradientUnits="userSpaceOnUse"><stop offset="0" style="stop-color:#00a0c6"/><stop offset="0.75" style="stop-color:#00a0c6;stop-opacity:0"/></linearGradient><path d="M239.744 287.819c26.984-48.324 130.503-77.001 231.223-64.055 100.715 12.947 160.479 62.622 133.492 110.944-26.984 48.324-130.506 77.006-231.22 64.055-100.714-12.949-160.482-62.618-133.495-110.944Z" style="fill:url(#B)"/><defs><filter id="C" width="377.60901" height="181.18401" x="233.3" y="220.672" filterUnits="userSpaceOnUse"><feFlood result="back"/><feBlend in="SourceGraphic" in2="back"/></filter></defs><linearGradient id="D" x1="4005.2373" x2="4205.6885" y1="5097.8066" y2="5097.8066" gradientTransform="rotate(75.001 5382.718 304.454)" gradientUnits="userSpaceOnUse"><stop offset="0" style="stop-color:#ff0"/><stop offset="0.75" style="stop-color:#ff0;stop-opacity:0"/></linearGradient><path d="M470.957 398.746c-100.695 12.949-204.198-15.724-231.177-64.042-26.984-48.314 32.774-97.976 133.473-110.923 100.695-12.947 204.193 15.727 231.179 64.044 26.978 48.314-32.78 97.979-133.475 110.921z" style="fill:url(#D)"/><linearGradient id="E" x1="8493.2383" x2="8789.4531" y1="1696.377" y2="1696.377" gradientTransform="rotate(-45.001 2859.61 10925.308)" gradientUnits="userSpaceOnUse"><stop offset="0" style="stop-color:#f0047f"/><stop offset="0.75" style="stop-color:#f0047f;stop-opacity:0"/></linearGradient><path d="M555.594 247.213c73.725 35.375 73.725 92.727 0 128.106-73.723 35.375-193.262 35.375-266.987 0-73.734-35.38-73.73-92.729-.002-128.107 73.727-35.377 193.262-35.377 266.989.001z" style="fill:url(#E)"/></g><defs><filter id="F" width="59.137001" height="144.95799" x="338.04099" y="224.32001" filterUnits="userSpaceOnUse"><feFlood result="back"/><feBlend in="SourceGraphic" in2="back"/></filter></defs><mask id="I" width="59.137" height="144.958" x="338.041" y="224.32" maskUnits="userSpaceOnUse"><g style="filter:url(#F)"><defs><filter id="G" width="59.137001" height="144.95799" x="338.04099" y="224.32001" filterUnits="userSpaceOnUse"><feFlood result="back"/><feBlend in="SourceGraphic" in2="back"/></filter></defs><linearGradient id="H" x1="338.0405" x2="397.17719" y1="296.7988" y2="296.7988" gradientUnits="userSpaceOnUse"><stop offset="0.4" style="stop-color:#000"/><stop offset="0.65" style="stop-color:#000"/><stop offset="1" style="stop-color:#fff"/></linearGradient><path d="M338.041 310.142c0 32.606 26.529 59.136 59.137 59.136l-.004-33.791c-13.971.002-25.341-11.367-25.341-25.345v-23.234l25.345.002v-33.794h-25.345V224.32l-33.788 28.795z" mask="url(#I)" style="fill:url(#H)"/></g></mask><path d="M338.041 310.142c0 32.606 26.529 59.136 59.137 59.136l-.004-33.791c-13.971.002-25.341-11.367-25.341-25.345v-23.234l25.345.002v-33.794h-25.345V224.32l-33.788 28.795z" style="fill:none"/><defs><filter id="J" width="72.277" height="118.274" x="490.09399" y="251.002" filterUnits="userSpaceOnUse"><feFlood result="back"/><feBlend in="SourceGraphic" in2="back"/></filter></defs><mask id="M" width="72.277" height="118.274" x="490.094" y="251.002" maskUnits="userSpaceOnUse"><g style="filter:url(#J)"><defs><filter id="K" width="72.277" height="118.274" x="490.09399" y="251.002" filterUnits="userSpaceOnUse"><feFlood result="back"/><feBlend in="SourceGraphic" in2="back"/></filter></defs><linearGradient id="L" x1="490.09381" x2="562.37109" y1="310.1387" y2="310.1387" gradientUnits="userSpaceOnUse"><stop offset="0.4" style="stop-color:#000"/><stop offset="0.65" style="stop-color:#000"/><stop offset="1" style="stop-color:#fff"/></linearGradient><path d="M562.371 331.814c-4.182 2.389-8.068 3.676-13.141 3.676-14.002 0-25.352-11.354-25.352-25.349 0-14.002 11.35-25.352 25.352-25.352 5.074 0 8.959 1.285 13.141 3.676V252.47a59.443 59.443 0 0 0-13.141-1.468c-32.658 0-59.137 26.478-59.137 59.14 0 32.658 26.479 59.135 59.137 59.135 4.516 0 8.916-.509 13.141-1.467z" mask="url(#M)" style="fill:url(#L)"/></g></mask><path d="M562.371 331.814c-4.182 2.389-8.068 3.676-13.141 3.676-14.002 0-25.352-11.354-25.352-25.349 0-14.002 11.35-25.352 25.352-25.352 5.074 0 8.959 1.285 13.141 3.676V252.47a59.443 59.443 0 0 0-13.141-1.468c-32.658 0-59.137 26.478-59.137 59.14 0 32.658 26.479 59.135 59.137 59.135 4.516 0 8.916-.509 13.141-1.467z" style="fill:none"/><defs><filter id="N" width="105.569" height="144.963" x="397.173" y="224.314" filterUnits="userSpaceOnUse"><feFlood result="back"/><feBlend in="SourceGraphic" in2="back"/></filter></defs><mask id="Q" width="105.569" height="144.963" x="397.173" y="224.314" maskUnits="userSpaceOnUse"><g style="filter:url(#N)"><defs><filter id="O" width="105.569" height="144.963" x="397.173" y="224.314" filterUnits="userSpaceOnUse"><feFlood result="back"/><feBlend in="SourceGraphic" in2="back"/></filter></defs><linearGradient id="P" x1="397.17331" x2="502.74219" y1="296.7959" y2="296.7959" gradientUnits="userSpaceOnUse"><stop offset="0.4" style="stop-color:#000"/><stop offset="0.65" style="stop-color:#000"/><stop offset="1" style="stop-color:#fff"/></linearGradient><path d="M490.094 310.142c0-13.789 4.732-26.468 12.643-36.525v-.024c-10.83-13.74-27.613-22.586-46.432-22.586a58.68 58.68 0 0 0-25.338 5.72l-.004-32.411-33.79.005.004 85.822c.003 32.606 26.526 59.136 59.127 59.136 18.818 0 35.602-8.848 46.438-22.588v-.024c-7.914-10.062-12.648-22.737-12.648-36.525zm-33.789 25.346c-13.973 0-25.338-11.371-25.342-25.347.004-13.975 11.369-25.344 25.342-25.344 13.971 0 25.34 11.369 25.34 25.344.003 13.978-11.37 25.347-25.34 25.347z" mask="url(#Q)" style="fill:url(#P)"/></g></mask><path d="M490.094 310.142c0-13.789 4.732-26.468 12.643-36.525v-.024c-10.83-13.74-27.613-22.586-46.432-22.586a58.68 58.68 0 0 0-25.338 5.72l-.004-32.411-33.79.005.004 85.822c.003 32.606 26.526 59.136 59.127 59.136 18.818 0 35.602-8.848 46.438-22.588v-.024c-7.914-10.062-12.648-22.737-12.648-36.525zm-33.789 25.346c-13.973 0-25.338-11.371-25.342-25.347.004-13.975 11.369-25.344 25.342-25.344 13.971 0 25.34 11.369 25.34 25.344.003 13.978-11.37 25.347-25.34 25.347z" style="fill:none"/><defs><filter id="R" width="59.134998" height="116.162" x="278.90601" y="253.11501" filterUnits="userSpaceOnUse"><feFlood result="back"/><feBlend in="SourceGraphic" in2="back"/></filter></defs><mask id="U" width="59.135" height="116.162" x="278.906" y="253.115" maskUnits="userSpaceOnUse"><g style="filter:url(#R)"><defs><filter id="S" width="59.134998" height="116.162" x="278.90601" y="253.11501" filterUnits="userSpaceOnUse"><feFlood result="back"/><feBlend in="SourceGraphic" in2="back"/></filter></defs><linearGradient id="T" x1="278.90579" x2="338.0405" y1="311.19629" y2="311.19629" gradientUnits="userSpaceOnUse"><stop offset="0.4" style="stop-color:#000"/><stop offset="0.65" style="stop-color:#000"/><stop offset="1" style="stop-color:#fff"/></linearGradient><path d="M304.245 310.142c.003 13.978-11.365 25.347-25.339 25.347v33.789c32.605 0 59.135-26.529 59.135-59.136l-.004-57.025-33.792-.001z" mask="url(#U)" style="fill:url(#T)"/></g></mask><path d="M304.245 310.142c.003 13.978-11.365 25.347-25.339 25.347v33.789c32.605 0 59.135-26.529 59.135-59.136l-.004-57.025-33.792-.001z" style="fill:none"/></g></g></svg>