<svg xmlns="http://www.w3.org/2000/svg" xml:space="preserve" width="1000px" height="293.98px" x="0px" y="0px" viewBox="0 0 1000 293.98"><g fill="#EC6C00"><path d="M627.609 142.408c18.221-14.669 29.916-37.083 29.916-62.279 0-41.963-36.023-76.047-77.3-79.407-.601-.073-1.263-.122-3.286-.362a109.966 109.966 0 0 0-4.697-.251h-207.88V293.98H577.83l6.383-.012c-3.118 0 .472.024 5.324-.229 1.108-.049 2.239-.071 3.469-.12.479-.012 1.034-.048 1.528-.073 42.864-1.759 76.709-36.613 76.709-79.814 0-31.097-17.741-57.994-43.634-71.324zM436.95 69.15h125.31c12.524 0 22.678 10.153 22.678 22.678 0 12.522-10.153 22.676-22.678 22.676H436.95V69.15zm139.285 155.672H436.95v-44.844h139.285c12.383 0 22.421 10.039 22.421 22.421 0 12.384-10.038 22.423-22.421 22.423zM999.977 0h-72.733v178.978L792.811 12.914A34.828 34.828 0 0 0 765.742 0h-68.191v293.98h72.553V100.229l146.332 180.763a34.818 34.818 0 0 0 27.022 12.914l56.542.074L999.977 0zM257.142 0a34.827 34.827 0 0 0-27.072 12.917l-69.144 80.205L91.78 12.916A34.826 34.826 0 0 0 64.709 0H0v293.98h72.611V104.6l83.208 98.043c2.675 3.152 7.537 3.152 10.212 0l83.207-98.043v189.38h72.612V0h-64.708z"/></g></svg>